<mxfile host="app.diagrams.net" agent="Mozilla/5.0 (Windows NT 10.0; Win64; x64) AppleWebKit/537.36 (KHTML, like Gecko) Chrome/129.0.0.0 Safari/537.36" version="24.7.16">
  <diagram name="Page-1" id="pYF18lCQTTVoo1oEJr3y">
    <mxGraphModel grid="1" page="1" gridSize="10" guides="1" tooltips="1" connect="1" arrows="1" fold="1" pageScale="1" pageWidth="2336" pageHeight="1654" math="0" shadow="0">
      <root>
        <mxCell id="0" />
        <mxCell id="1" parent="0" />
        <mxCell id="0Hh6tKdVNuAHICyi-rM8-1" value="" style="ellipse;whiteSpace=wrap;html=1;" vertex="1" parent="1">
          <mxGeometry x="198.75" y="400" width="172.5" height="75" as="geometry" />
        </mxCell>
        <mxCell id="A9AlxAGkYBNaRsFVxESE-4" value="Pendaftaran Anggota" style="text;strokeColor=none;fillColor=none;html=1;align=center;verticalAlign=middle;whiteSpace=wrap;rounded=0;fontSize=16;" vertex="1" parent="1">
          <mxGeometry x="152.5" y="422.5" width="265" height="30" as="geometry" />
        </mxCell>
        <mxCell id="A9AlxAGkYBNaRsFVxESE-5" value="" style="rounded=0;whiteSpace=wrap;html=1;" vertex="1" parent="1">
          <mxGeometry x="210" y="145" width="150" height="70" as="geometry" />
        </mxCell>
        <mxCell id="A9AlxAGkYBNaRsFVxESE-6" value="Anggota Perpustakaan" style="text;strokeColor=none;fillColor=none;html=1;align=center;verticalAlign=middle;whiteSpace=wrap;rounded=0;fontSize=16;" vertex="1" parent="1">
          <mxGeometry x="230" y="150" width="110" height="60" as="geometry" />
        </mxCell>
        <mxCell id="WhMCwVpv4D0bap5uPBdw-2" value="&lt;font style=&quot;font-size: 6px;&quot;&gt;Pendaftaran/Peminjaman/Pengembalian Buku&lt;/font&gt;" style="endArrow=open;endSize=12;dashed=1;html=1;rounded=0;exitX=0.463;exitY=0.998;exitDx=0;exitDy=0;exitPerimeter=0;entryX=0.475;entryY=-0.011;entryDx=0;entryDy=0;entryPerimeter=0;" edge="1" parent="1" source="A9AlxAGkYBNaRsFVxESE-5" target="0Hh6tKdVNuAHICyi-rM8-1">
          <mxGeometry x="-0.09" width="160" relative="1" as="geometry">
            <mxPoint x="285" y="200" as="sourcePoint" />
            <mxPoint x="280" y="390" as="targetPoint" />
            <Array as="points" />
            <mxPoint as="offset" />
          </mxGeometry>
        </mxCell>
        <mxCell id="WhMCwVpv4D0bap5uPBdw-7" value="" style="rounded=0;whiteSpace=wrap;html=1;" vertex="1" parent="1">
          <mxGeometry x="580" y="145" width="150" height="70" as="geometry" />
        </mxCell>
        <mxCell id="WhMCwVpv4D0bap5uPBdw-8" value="Petugas Perpustakaan" style="text;strokeColor=none;fillColor=none;html=1;align=center;verticalAlign=middle;whiteSpace=wrap;rounded=0;fontSize=16;" vertex="1" parent="1">
          <mxGeometry x="600" y="150" width="110" height="60" as="geometry" />
        </mxCell>
        <mxCell id="WhMCwVpv4D0bap5uPBdw-9" value="&lt;font style=&quot;font-size: 6px;&quot;&gt;Pengelolaan Buku/Pembaruan Data Buku&lt;/font&gt;" style="endArrow=open;endSize=12;dashed=1;html=1;rounded=0;exitX=0.463;exitY=0.998;exitDx=0;exitDy=0;exitPerimeter=0;entryX=0.5;entryY=0;entryDx=0;entryDy=0;" edge="1" parent="1" target="WhMCwVpv4D0bap5uPBdw-11">
          <mxGeometry x="-0.09" width="160" relative="1" as="geometry">
            <mxPoint x="654.37" y="215" as="sourcePoint" />
            <mxPoint x="655.37" y="380" as="targetPoint" />
            <Array as="points" />
            <mxPoint as="offset" />
          </mxGeometry>
        </mxCell>
        <mxCell id="WhMCwVpv4D0bap5uPBdw-11" value="" style="ellipse;whiteSpace=wrap;html=1;" vertex="1" parent="1">
          <mxGeometry x="568.75" y="400" width="172.5" height="75" as="geometry" />
        </mxCell>
        <mxCell id="WhMCwVpv4D0bap5uPBdw-12" value="Pengelolaan Buku" style="text;strokeColor=none;fillColor=none;html=1;align=center;verticalAlign=middle;whiteSpace=wrap;rounded=0;fontSize=16;" vertex="1" parent="1">
          <mxGeometry x="522.5" y="422.5" width="265" height="30" as="geometry" />
        </mxCell>
        <mxCell id="WhMCwVpv4D0bap5uPBdw-13" value="" style="shape=process;whiteSpace=wrap;html=1;backgroundOutline=1;" vertex="1" parent="1">
          <mxGeometry x="202.5" y="585" width="165" height="90" as="geometry" />
        </mxCell>
        <mxCell id="WhMCwVpv4D0bap5uPBdw-14" value="Data Anggota" style="text;strokeColor=none;fillColor=none;html=1;align=center;verticalAlign=middle;whiteSpace=wrap;rounded=0;fontSize=16;" vertex="1" parent="1">
          <mxGeometry x="152.5" y="615" width="265" height="30" as="geometry" />
        </mxCell>
        <mxCell id="WhMCwVpv4D0bap5uPBdw-15" value="" style="shape=process;whiteSpace=wrap;html=1;backgroundOutline=1;" vertex="1" parent="1">
          <mxGeometry x="572.5" y="585" width="165" height="90" as="geometry" />
        </mxCell>
        <mxCell id="WhMCwVpv4D0bap5uPBdw-16" value="Data Buku" style="text;strokeColor=none;fillColor=none;html=1;align=center;verticalAlign=middle;whiteSpace=wrap;rounded=0;fontSize=16;" vertex="1" parent="1">
          <mxGeometry x="522.5" y="615" width="265" height="30" as="geometry" />
        </mxCell>
        <mxCell id="WhMCwVpv4D0bap5uPBdw-17" value="" style="ellipse;whiteSpace=wrap;html=1;" vertex="1" parent="1">
          <mxGeometry x="198.75" y="780" width="172.5" height="75" as="geometry" />
        </mxCell>
        <mxCell id="WhMCwVpv4D0bap5uPBdw-18" value="Peminjaman Buku" style="text;strokeColor=none;fillColor=none;html=1;align=center;verticalAlign=middle;whiteSpace=wrap;rounded=0;fontSize=16;" vertex="1" parent="1">
          <mxGeometry x="152.5" y="802.5" width="265" height="30" as="geometry" />
        </mxCell>
        <mxCell id="WhMCwVpv4D0bap5uPBdw-19" value="" style="ellipse;whiteSpace=wrap;html=1;" vertex="1" parent="1">
          <mxGeometry x="568.75" y="780" width="172.5" height="75" as="geometry" />
        </mxCell>
        <mxCell id="WhMCwVpv4D0bap5uPBdw-20" value="Pengembalian Buku" style="text;strokeColor=none;fillColor=none;html=1;align=center;verticalAlign=middle;whiteSpace=wrap;rounded=0;fontSize=16;" vertex="1" parent="1">
          <mxGeometry x="522.5" y="802.5" width="265" height="30" as="geometry" />
        </mxCell>
        <mxCell id="WhMCwVpv4D0bap5uPBdw-21" value="" style="endArrow=open;endFill=1;endSize=12;html=1;rounded=0;entryX=0.469;entryY=0.007;entryDx=0;entryDy=0;entryPerimeter=0;exitX=0.476;exitY=0.987;exitDx=0;exitDy=0;exitPerimeter=0;" edge="1" parent="1" source="0Hh6tKdVNuAHICyi-rM8-1" target="WhMCwVpv4D0bap5uPBdw-13">
          <mxGeometry width="160" relative="1" as="geometry">
            <mxPoint x="280" y="480" as="sourcePoint" />
            <mxPoint x="530" y="610" as="targetPoint" />
          </mxGeometry>
        </mxCell>
        <mxCell id="WhMCwVpv4D0bap5uPBdw-22" value="" style="endArrow=open;endFill=1;endSize=12;html=1;rounded=0;entryX=0.469;entryY=0.007;entryDx=0;entryDy=0;entryPerimeter=0;exitX=0.476;exitY=0.987;exitDx=0;exitDy=0;exitPerimeter=0;" edge="1" parent="1">
          <mxGeometry width="160" relative="1" as="geometry">
            <mxPoint x="654.89" y="474" as="sourcePoint" />
            <mxPoint x="653.89" y="586" as="targetPoint" />
          </mxGeometry>
        </mxCell>
        <mxCell id="WhMCwVpv4D0bap5uPBdw-23" value="" style="rounded=0;whiteSpace=wrap;html=1;" vertex="1" parent="1">
          <mxGeometry x="347.5" y="950" width="250" height="60" as="geometry" />
        </mxCell>
        <mxCell id="WhMCwVpv4D0bap5uPBdw-24" value="Sistem Perpustakaan" style="text;strokeColor=none;fillColor=none;html=1;align=center;verticalAlign=middle;whiteSpace=wrap;rounded=0;fontSize=16;" vertex="1" parent="1">
          <mxGeometry x="360" y="965" width="220" height="30" as="geometry" />
        </mxCell>
        <mxCell id="WhMCwVpv4D0bap5uPBdw-27" value="" style="endArrow=open;endFill=1;endSize=12;html=1;rounded=0;exitX=0.476;exitY=0.987;exitDx=0;exitDy=0;exitPerimeter=0;" edge="1" parent="1">
          <mxGeometry width="160" relative="1" as="geometry">
            <mxPoint x="281" y="675" as="sourcePoint" />
            <mxPoint x="280" y="780" as="targetPoint" />
          </mxGeometry>
        </mxCell>
        <mxCell id="WhMCwVpv4D0bap5uPBdw-28" value="" style="endArrow=open;endFill=1;endSize=12;html=1;rounded=0;exitX=0.476;exitY=0.987;exitDx=0;exitDy=0;exitPerimeter=0;" edge="1" parent="1">
          <mxGeometry width="160" relative="1" as="geometry">
            <mxPoint x="655.5" y="675" as="sourcePoint" />
            <mxPoint x="656" y="780" as="targetPoint" />
          </mxGeometry>
        </mxCell>
        <mxCell id="WhMCwVpv4D0bap5uPBdw-29" value="" style="endArrow=classic;html=1;rounded=0;exitX=0.363;exitY=0.999;exitDx=0;exitDy=0;exitPerimeter=0;entryX=0;entryY=0.5;entryDx=0;entryDy=0;" edge="1" parent="1" target="WhMCwVpv4D0bap5uPBdw-23">
          <mxGeometry width="50" height="50" relative="1" as="geometry">
            <mxPoint x="261.3675" y="853.925" as="sourcePoint" />
            <mxPoint x="340" y="980" as="targetPoint" />
            <Array as="points">
              <mxPoint x="260" y="979" />
            </Array>
          </mxGeometry>
        </mxCell>
        <mxCell id="WhMCwVpv4D0bap5uPBdw-32" value="" style="endArrow=classic;html=1;rounded=0;exitX=0.647;exitY=1.007;exitDx=0;exitDy=0;entryX=1;entryY=0.5;entryDx=0;entryDy=0;exitPerimeter=0;" edge="1" parent="1" source="WhMCwVpv4D0bap5uPBdw-19" target="WhMCwVpv4D0bap5uPBdw-23">
          <mxGeometry width="50" height="50" relative="1" as="geometry">
            <mxPoint x="330" y="970" as="sourcePoint" />
            <mxPoint x="380" y="920" as="targetPoint" />
            <Array as="points">
              <mxPoint x="680" y="980" />
            </Array>
          </mxGeometry>
        </mxCell>
      </root>
    </mxGraphModel>
  </diagram>
</mxfile>
